<svg id="laptop" width="443px" height="174px" viewBox="0 0 443 174" version="1.1" xmlns="http://www.w3.org/2000/svg" xmlns:xlink="http://www.w3.org/1999/xlink">
    <defs></defs>
    <g id="pages" stroke="none" stroke-width="1" fill="none" fill-rule="evenodd">
        <g id="homepage" transform="translate(-904.000000, -4473.000000)">
            <g id="learn_code" transform="translate(-486.000000, 3672.000000)">
                <g id="apply" transform="translate(568.000000, 529.000000)">
                    <g id="laptop" transform="translate(822.000000, 272.000000)">
                        <path d="M283,156 C312.141073,148.849923 331.239077,144.135523 340,142 C348.96834,140.700071 382.613,140.605557 441,142 C442.149232,141.943652 443.024472,142.853318 443,144 C442.98008,144.802255 442.416441,145.546894 442,146 L362,170 C354.910461,172.816974 347.135688,174 339,174 L17,174 C15.665965,174 14.6716005,173.42679 14,172 L11,167 L261,159 C268.332876,159.209184 275.665607,158.17343 283,156 Z" id="shadow" fill="#F2E6CE"></path>
                        <g id="screen" transform="translate(133.000000, 0.000000)">
                            <path d="M9.86181962,0.198695507 L224,5 L259,163 L41.6564864,163 C38.3568217,163 35.5052119,160.695701 34.8124846,157.469571 L2.86090654,8.66650758 C2.04928491,4.88666974 4.45549959,1.16455641 8.23533743,0.35293479 C8.76961922,0.238211706 9.31549702,0.186446122 9.86181962,0.198695507 Z" id="shape" fill="#FCF5E8" transform="translate(130.500000, 81.500000) scale(-1, 1) translate(-130.500000, -81.500000) "></path>
                            <path d="M245,-4.168e-13 C245.509096,-4.16706842e-13 246.014451,0.0551088844 247,-4.168e-13 C250.282618,0.997185085 252.666628,4.73274821 252,9 L218,161 C218.102127,161.497471 217.476988,162 217,162 L2,162 C1.42497811,162 1.31079835,161.987208 1,162 C0.370083033,161.773755 -0.149555141,160.948856 0,160 L35,5 C35.8187885,2.26327914 38.6513082,-4.00455907e-13 42,-4.168e-13 L245,-4.168e-13 Z" id="shape" fill="#FFFFFF"></path>
                            <path d="M12.8136179,10 L205.562534,10 C206.990922,10 208.231879,10.982075 208.560112,12.3722385 L241.105667,150.212239 C241.496553,151.867755 240.471368,153.526692 238.815851,153.917578 C238.583914,153.972341 238.346404,154 238.108089,154 L42.4875067,154 C41.0362656,154 39.7819114,152.986943 39.4764886,151.568205 L9.80259975,13.7282053 C9.44460586,12.0652659 10.5024732,10.4269758 12.1654126,10.0689819 C12.3784326,10.0231234 12.5957176,10 12.8136179,10 Z" id="shape" fill="#FCF5E8" transform="translate(125.500000, 82.000000) scale(-1, 1) translate(-125.500000, -82.000000) "></path>
                        </g>
                        <g id="bottom" transform="translate(0.000000, 159.000000)">
                            <path d="M325.77,4 L335.23,4 C335.655259,4 336,4.34474074 336,4.77 L336,6.23 C336,6.65525926 335.655259,7 335.23,7 L325.77,7 C325.344741,7 325,6.65525926 325,6.23 L325,4.77 C325,4.34474074 325.344741,4 325.77,4 Z" id="shape" fill="#FFFFFF"></path>
                            <path d="M3.17886283,5 L347.094328,5 C347.944847,5 348.634328,5.68948149 348.634328,6.54000001 C348.634328,6.65186666 348.622139,6.7634003 348.597977,6.87262637 L347.776697,10.5852527 C347.464654,11.9958528 346.214101,13 344.769399,13 L5.50379211,13 C4.05909033,13 2.80853729,11.9958528 2.4964945,10.5852527 L1.67521402,6.87262637 C1.49150955,6.04218407 2.01579416,5.22005567 2.84623646,5.0363512 C2.95546254,5.012189 3.06699618,5 3.17886283,5 Z" id="shape" fill="#FCF5E8"></path>
                            <path d="M1.67589752,1 L327.324102,1 C328.15253,1 328.824102,1.67157288 328.824102,2.5 C328.824102,2.55534273 328.82104,2.61064305 328.814928,2.66564729 L328.148261,8.66564729 C328.063856,9.42529631 327.42176,10 326.657436,10 L2.34256419,10 C1.57824036,10 0.936144034,9.42529631 0.851738588,8.66564729 L0.185071921,2.66564729 C0.0935874494,1.84228704 0.686889989,1.10065887 1.51025023,1.0091744 C1.56525447,1.00306282 1.62055479,1 1.67589752,1 Z" id="shape" fill="#FFFFFF"></path>
                            <path d="M122.802776,-5.77315973e-15 L155.197224,-1.0658141e-14 C155.730078,-1.07560246e-14 156.162041,0.431962945 156.162041,0.964816242 C156.162041,1.15529507 156.105659,1.34151203 156,1.5 L155.415613,2.37658029 C155.155961,2.76605841 154.718837,3 154.250743,3 L123.749257,3 C123.281163,3 122.844039,2.76605841 122.584387,2.37658029 L122,1.5 C121.704426,1.05663926 121.824231,0.457614432 122.267592,0.162040604 C122.42608,0.056381958 122.612297,-5.84919164e-15 122.802776,-5.88418203e-15 Z" id="shape" fill="#FCF5E8"></path>
                            <path d="M251.46906,1 L352,1 C354.209139,1 356,2.790861 356,5 L356,6 C356,8.209139 354.209139,10 352,10 L251.580171,10 C249.541974,10 247.829717,8.46745682 247.604636,6.4417261 L247.493525,5.4417261 C247.249567,3.24609879 248.831707,1.26842365 251.027334,1.02446506 C251.174012,1.00816751 251.321479,1 251.46906,1 Z" id="shape" fill="#FCF5E8"></path>
                            <path d="M317.77,4 L327.23,4 C327.655259,4 328,4.34474074 328,4.77 L328,6.23 C328,6.65525926 327.655259,7 327.23,7 L317.77,7 C317.344741,7 317,6.65525926 317,6.23 L317,4.77 C317,4.34474074 317.344741,4 317.77,4 Z M332.77,4 L342.23,4 C342.655259,4 343,4.34474074 343,4.77 L343,6.23 C343,6.65525926 342.655259,7 342.23,7 L332.77,7 C332.344741,7 332,6.65525926 332,6.23 L332,4.77 C332,4.34474074 332.344741,4 332.77,4 Z" id="shape" fill="#FFFFFF"></path>
                        </g>
                        <g id="terminal" transform="translate(167.000000, 24.000000)">
                            <path d="M182,0 C182.201394,5.68434189e-14 182.404191,0.0206515842 183,0 C184.22687,0.395766566 185.272018,1.98218262 185,4 L162,114 C161.991945,114.999406 160.763799,116 159,116 L3,116 C2.78100879,116 2.56071314,115.975608 2,116 C0.727696602,115.564642 -0.28937138,113.960095 0,112 L25,2 C25.0649037,0.973575111 26.2815832,-1.42108547e-14 28,0 L182,0 Z" id="shape" fill="#FFFFFF"></path>
                            <path d="M26.7169619,-4.86023587e-14 L181.062014,-3.8191672e-14 C182.446603,-3.84460169e-14 183.651341,0.947569116 183.977559,2.29317955 L185.118642,7 L24.5461319,7 L23.7909171,3.66201355 C23.4252971,2.04600364 24.4389384,0.439575207 26.0549483,0.073955219 C26.2721899,0.0248046103 26.4942295,-4.88088978e-14 26.7169619,-4.88498131e-14 Z" id="shape" fill="#F2E6CE" transform="translate(104.417475, 3.500000) scale(-1, 1) translate(-104.417475, -3.500000) "></path>
                            <path d="M39.5,5 C38.6715729,5 38,4.32842712 38,3.5 C38,2.67157288 38.6715729,2 39.5,2 C40.3284271,2 41,2.67157288 41,3.5 C41,4.32842712 40.3284271,5 39.5,5 Z M34.5,5 C33.6715729,5 33,4.32842712 33,3.5 C33,2.67157288 33.6715729,2 34.5,2 C35.3284271,2 36,2.67157288 36,3.5 C36,4.32842712 35.3284271,5 34.5,5 Z M29.5,5 C28.6715729,5 28,4.32842712 28,3.5 C28,2.67157288 28.6715729,2 29.5,2 C30.3284271,2 31,2.67157288 31,3.5 C31,4.32842712 30.3284271,5 29.5,5 Z" id="Combined-Shape" fill="#FFFFFF"></path>
                            <path d="M32,22 L151,22" id="line" stroke="#F2E6CE" stroke-width="2" stroke-linecap="round" stroke-linejoin="round"></path>
                            <path d="M44,32 L129,32" id="line" stroke="#F2E6CE" stroke-width="2" stroke-linecap="round" stroke-linejoin="round"></path>
                            <path d="M26,53 L86,53" id="line" stroke="#F2E6CE" stroke-width="2" stroke-linecap="round" stroke-linejoin="round"></path>
                            <path d="M36,42 L71,42" id="line" stroke="#F2E6CE" stroke-width="2" stroke-linecap="round" stroke-linejoin="round"></path>
                        </g>
                    </g>
                </g>
            </g>
        </g>
    </g>
</svg>