<svg width="1440px" height="560px" viewBox="0 0 1440 560" version="1.1" xmlns="http://www.w3.org/2000/svg" xmlns:xlink="http://www.w3.org/1999/xlink">
  <defs>
      <linearGradient x1="50%" y1="0%" x2="50%" y2="100%" id="linearGradient-1">
          <stop stop-color="#FFFFFF" offset="0%"></stop>
          <stop stop-color="#FCF5E8" offset="100%"></stop>
      </linearGradient>
      <path d="M76.312036,1.79180342e-15 C80.980542,2.65295471e-15 84.765114,3.80028514 84.765114,8.48817443 L84.765114,48.5031299 C84.765114,53.1910192 80.980542,56.9913043 76.312036,56.9913043 L9.5814492,56.9913043 C4.3637075,56.9913043 0.1338921,52.7439268 0.1338921,47.5045212 L0.1338921,10.2249821 C0.1338921,6.11428843 3.2404352,2.67458393 7.314659,2.27411348 L30.4505668,0 L76.312036,1.79180342e-15 Z" id="path-2"></path>
  </defs>
  <g id="Page-1" stroke="none" stroke-width="1" fill="none" fill-rule="evenodd">
      <g id="Group-2" transform="translate(-689.000000, 0.000000)">
          <g id="go_further" transform="translate(0.000000, 47.000000)">
              <g id="bg" transform="translate(1286.500000, 305.000000) scale(-1, 1) translate(-1286.500000, -305.000000) translate(0.000000, 97.000000)">
                  <rect id="Rectangle" fill="#FFFFFF" x="444" y="30" width="1440" height="386"></rect>
                  <polygon fill="#FCF5E8" fill-rule="nonzero" points="2.01263128 135.463556 890.57489 106.860822 1221.94817 267.722204 2564 287.130462 2564 415.317691 2.01263128 415.432019"></polygon>
                  <polygon id="Shape" fill="url(#linearGradient-1)" fill-rule="nonzero" points="1230.39099 143 1942 143 1903.11426 277 1230.39099 277 893.438689 117.720289"></polygon>
                  <path d="M993.520565,122.170118 C1475.02333,122.170118 1744.59003,139.912182 1744.59003,106.039363 C1744.59003,72.1665436 1354.25492,44.7071982 872.752155,44.7071982 C391.24939,44.7071982 0.91427634,72.1665436 0.91427634,106.039363 C0.91427634,139.912182 512.0178,122.170118 993.520565,122.170118 Z" id="Shape" fill="#FCF5E8" fill-rule="nonzero" transform="translate(872.752153, 85.760660) rotate(-2.000000) translate(-872.752153, -85.760660) "></path>
                  <path d="M1364.1595,270.173557 C1374.15233,270.354636 1384.11444,270.447243 1394.03688,270.447243 C1771.17275,270.447243 1948.18747,136.663249 1948.18747,96.1872918 C1948.18747,74.6680049 1861.77067,55.3149282 1724.15028,41.907306 C1788.41814,43.8842268 1855.14185,47.193465 1922.49871,51.9035156 C2307.30489,78.8117849 2567.05739,141.249824 2563.43805,193.008893 C2562.70932,203.4301 2558.97423,256.844381 2552.23278,353.251734 C2039.11588,353.282419 1755.4511,351.402302 1701.23844,347.611384 C1557.56927,337.565057 1446.61387,307.101689 1364.1595,270.173557 Z" id="Shape" fill="#FCF5E8" fill-rule="nonzero" transform="translate(1963.817447, 197.579705) rotate(-4.000000) translate(-1963.817447, -197.579705) "></path>
              </g>
              <g id="briq" transform="translate(962.000000, 162.000000) scale(-1, 1) translate(-962.000000, -162.000000) translate(906.000000, 133.000000)">
                  <path d="M77.8785214,53.2757895 C90.5982874,52.3494779 99.3408092,52.3494779 104.106087,53.2757895 C111.102099,54.6357286 105.244298,56.5124318 104.106087,57.1250125 C103.092409,57.6705702 96.5685775,57.9337438 84.5345936,57.9145336 L30.3209696,57.9145336 C29.5592414,57.9145336 28.7999849,57.8275323 28.0578401,57.6552074 L1.19293231,51.4172149 C0.732996987,51.3104186 0.40917303,50.8964429 0.414793742,50.4224447 C0.421399244,49.8653985 0.87646204,49.4192004 1.43120498,49.4258305 C11.9072255,49.5510897 22.1166361,49.8955295 32.0594367,50.4591497 C44.8433386,51.1838214 60.1163668,52.1227013 77.8785214,53.2757895 Z" id="Path-60" fill="#F2E6CE" fill-rule="nonzero"></path>
                  <g id="Rectangle-12" transform="translate(26.000000, 0.000000)" fill="#FCF5E8" fill-rule="nonzero">
                      <path d="M76.312036,1.79180342e-15 C80.980542,2.65295471e-15 84.765114,3.80028514 84.765114,8.48817443 L84.765114,48.5031299 C84.765114,53.1910192 80.980542,56.9913043 76.312036,56.9913043 L9.5814492,56.9913043 C4.3637075,56.9913043 0.1338921,52.7439268 0.1338921,47.5045212 L0.1338921,10.2249821 C0.1338921,6.11428843 3.2404352,2.67458393 7.314659,2.27411348 L30.4505668,0 L76.312036,1.79180342e-15 Z" id="path-2"></path>
                  </g>
                  <g id="Rectangle-12-Clipped" transform="translate(26.000000, 0.000000)">
                      <mask id="mask-3" fill="white">
                          <use xlink:href="#path-2"></use>
                      </mask>
                      <g id="path-2"></g>
                      <rect id="Rectangle-12" fill="#FFFFFF" fill-rule="nonzero" mask="url(#mask-3)" x="20.4451635" y="0" width="64.2895928" height="57.7511884" rx="8.41500052"></rect>
                      <g id="rails" mask="url(#mask-3)" fill="#F2E6CE" fill-rule="nonzero">
                          <g transform="translate(52.000000, 31.601990) rotate(1.000000) translate(-52.000000, -31.601990) translate(32.000000, 12.000000)" id="Shape">
                              <path d="M4.44118135,39.101202 L23.8662285,39.101202 C23.8662285,39.101202 19.5573487,29.3149924 20.6521128,20.3323116 C21.7468772,11.349631 28.8312649,7.26005506 32.8471546,6.8214476 C36.8630446,6.38284016 39.0543274,8.86711278 39.0543274,8.86711278 L39.9315423,7.55304484 C39.9315423,7.55304484 34.1629771,1.71079352 26.8592856,2.36870472 C19.5555943,3.0266159 14.5168718,7.84603463 11.3781969,13.688286 C8.23776748,19.5305373 6.41140603,23.6201132 5.17102416,29.7553542 C3.93064227,35.8905954 4.44118135,39.1029564 4.44118135,39.1029564 L4.44118135,39.101202 Z M0.57090915,29.3149924 L4.36749528,29.6079821 L3.7095841,33.4045684 L0.130547264,32.9659608 L0.56915472,29.3149924 L0.57090915,29.3149924 Z M6.55877815,21.2814583 L7.58161073,18.4340186 L4.22187761,17.1199507 L3.12711341,20.1866939 L6.55877815,21.2814583 Z M11.3062653,11.4952487 L13.2782444,9.15834814 L10.7220401,7.47935879 L8.67812937,9.74257327 L11.3062653,11.4952487 Z M16.4906054,2.44063634 L18.2432808,4.55823313 L20.6538675,3.17047914 L18.901192,1.19850002 L16.4906054,2.44063634 Z M25.0346786,0.0300497512 L25.4732862,2.14764655 L28.4680977,2.0739605 L28.1751081,0.175667427 L25.0346786,0.0300497512 Z M35.1858096,2.29326422 L35.1121236,3.60733216 L37.1577887,4.70209638 L37.5963962,4.04418519 L35.187564,2.29150979 L35.1858096,2.29326422 Z M34.7472022,7.91796625 L34.7472022,9.01273047 L36.7191813,9.23203419 L36.7191813,8.35481928 L34.7472022,7.91621182 L34.7472022,7.91796625 Z M28.4680977,8.86711278 L29.4172444,10.6197882 L30.8049984,9.52502396 L30.513763,8.35657371 L28.4698521,8.8688672 L28.4680977,8.86711278 Z M25.4732862,11.1303273 L26.9329717,13.3216101 L26.0575112,14.8549818 L23.9399144,12.5180813 L25.4732862,11.1303273 Z M22.5521604,17.1918823 L21.6030139,19.0901754 L24.0855321,21.2077721 L24.6697572,18.7971856 L22.5521604,17.1901279 L22.5521604,17.1918823 Z M21.5293278,23.8376625 L21.3837102,26.3938667 L24.4504535,27.7079347 L24.3048358,25.2973481 L21.5293278,23.8359081 L21.5293278,23.8376625 Z M22.4065427,32.8922748 L23.1381399,35.5221652 L27.0084121,35.7414689 L25.6206581,32.8940293 L22.4065427,32.8940293 L22.4065427,32.8922748 Z"></path>
                          </g>
                      </g>
                  </g>
              </g>
              <g id="illo" transform="translate(1803.000000, 0.000000)" fill-rule="nonzero">
                  <g id="city">
                      <path d="M139.884021,151.611689 C153.512407,151.598355 167.721049,151.583394 182.509946,151.566806 L182.509946,40.2 L219.132007,44.957041 L219.132007,25.8825404 L249.750452,21.093895 L249.750452,4.11475987 L282.770344,0.539905005 L282.770344,136.26198 L250.350814,136.26198 L250.350814,151.484582 C260.918387,151.470916 271.724897,151.45658 282.770344,151.441575 L282.770344,162.6 L321.578097,162.6 L321.578097,179.990625 C146.225637,162.729739 42.915886,153.36484 11.6488445,151.895928 C4.43396217,151.556976 -2.20970028,151.693652 1.57272477,151.693652 C9.08760549,151.693652 17.0187322,151.692485 25.3661049,151.690151 L41.0012719,140.309533 C42.5401029,139.189439 44.3944193,138.586035 46.2977349,138.586035 L78.0944507,138.586035 C80.7013518,138.586035 83.180178,137.455679 84.8895533,135.487439 L98.2139192,120.145254 C99.7626821,118.36195 101.95041,117.258955 104.305133,117.074227 L114.068716,116.308272 L114.068716,87.5999999 C114.068716,86.9372583 114.605974,86.4 115.268716,86.4 L151.291139,86.4 L151.291139,147.539733 L139.878695,147.539733 C139.880434,148.87116 139.882209,150.228479 139.884021,151.611689 Z M291.175407,6.6 L332,6.6 L332,14.4 L291.175407,14.4 L291.175407,6.6 Z M291.175407,21.6 L332,21.6 L332,29.4 L291.175407,29.4 L291.175407,21.6 Z M291.175407,37.8 L332,37.8 L332,45.6 L291.175407,45.6 L291.175407,37.8 Z M291.175407,52.8 L332,52.8 L332,60.6 L291.175407,60.6 L291.175407,52.8 Z M291.175407,69 L332,69 L332,76.8 L291.175407,76.8 L291.175407,69 Z M291.175407,84 L332,84 L332,91.8 L291.175407,91.8 L291.175407,84 Z M291.175407,100.2 L332,100.2 L332,108 L291.175407,108 L291.175407,100.2 Z M291.175407,117 L332,117 L332,124.8 L291.175407,124.8 L291.175407,117 Z M291.175407,133.8 L332,133.8 L332,141.6 L291.175407,141.6 L291.175407,133.8 Z" id="Combined-Shape" fill="#FCF5E8"></path>
                      <g id="building" transform="translate(138.083183, 30.000000)">
                          <polyline id="Rectangle-Copy" stroke="#FFFFFF" stroke-width="4.79999971" fill="#FCF5E8" stroke-linejoin="round" transform="translate(22.213382, 62.400000) scale(-1, 1) translate(-22.213382, -62.400000) " points="8.99999996e-07 114.6 8.99999996e-07 10.2 44.426764 12 44.426764 114.6"></polyline>
                          <g id="Group" transform="translate(12.007233, 0.069817)" fill="#FFFFFF">
                              <rect id="Combined-Shape" x="0.513590642" y="0.0773379515" width="4.80289331" height="120.951064"></rect>
                              <rect id="Combined-Shape" x="13.7215472" y="0.0773379515" width="4.80289331" height="120.951064"></rect>
                          </g>
                      </g>
                  </g>
              </g>
          </g>
      </g>
  </g>
</svg>